<mxfile host="app.diagrams.net" modified="2023-08-22T07:43:06.914Z" agent="Mozilla/5.0 (Windows NT 10.0; Win64; x64) AppleWebKit/537.36 (KHTML, like Gecko) Chrome/116.0.0.0 Safari/537.36" version="21.6.8" etag="YLjGoj2lqLeHRsIwUtMz" type="github">
  <diagram name="Page-1" id="Rz-d0snFzKJQfCRKx62i">
    <mxGraphModel>
      <root>
        <mxCell id="0" />
        <mxCell id="1" parent="0" />
      </root>
    </mxGraphModel>
  </diagram>
</mxfile>
